<?xml version="1.0" encoding="UTF-8"?>
<svg width="47px" height="29px" viewBox="0 0 47 29" version="1.1" xmlns="http://www.w3.org/2000/svg" xmlns:xlink="http://www.w3.org/1999/xlink">
    <!-- Generator: Sketch 50.2 (55047) - http://www.bohemiancoding.com/sketch -->
    <title>noun_94600_cc</title>
    <desc>Created with Sketch.</desc>
    <defs></defs>
    <g id="Page-1" stroke="none" stroke-width="1" fill="none" fill-rule="evenodd">
        <g id="Artboard-3" transform="translate(-29.000000, -8.000000)" fill="#FFFFFF" fill-rule="nonzero">
            <g id="noun_953270_cc" transform="translate(40.000000, 15.000000)">
                <g id="noun_94600_cc" transform="translate(-11.000000, -7.000000)">
                    <path d="M22.8826731,23.3241563 L22.68925,23.2353438 L11.2104038,17.9954062 L11.2104038,22.8085 C11.2104038,24.9427187 16.4364423,28.1145937 22.8826731,28.1145937 C29.3289038,28.1145937 34.5549423,24.9418125 34.5549423,22.8085 L34.5549423,17.9954062 L22.8826731,23.3241563 Z" id="Shape"></path>
                    <polygon id="Shape" points="22.8826731 0.8863125 0 11.33175 22.8826731 21.7762813 45.7635385 11.33175"></polygon>
                    <path d="M45.3513846,19.7553438 L45.3495769,19.6411563 C45.8322308,19.3339375 46.2028077,18.7385313 46.2028077,18.1195625 C46.2028077,17.2531875 45.6397115,16.4982812 44.7837692,16.3623438 L44.7837692,11.33175 L44.3291346,11.33175 L44.3291346,16.3904375 C43.5292308,16.584375 42.8649038,17.255 42.8649038,18.063375 C42.8649038,18.6823438 43.099,19.2215625 43.5816538,19.5287813 L43.5328462,19.7544375 L41.8399423,26.814125 L44.4204231,26.814125 L47,26.814125 L45.3513846,19.7553438 Z" id="Shape"></path>
                </g>
            </g>
        </g>
    </g>
</svg>