<?xml version="1.0" encoding="UTF-8"?>
<svg width="20px" height="15px" viewBox="0 0 20 15" version="1.1" xmlns="http://www.w3.org/2000/svg" xmlns:xlink="http://www.w3.org/1999/xlink">
    <!-- Generator: Sketch 50.2 (55047) - http://www.bohemiancoding.com/sketch -->
    <title>Group</title>
    <desc>Created with Sketch.</desc>
    <defs></defs>
    <g id="Page-1" stroke="none" stroke-width="1" fill="none" fill-rule="evenodd">
        <g id="Artboard-3" transform="translate(-42.000000, -15.000000)" fill="#FFFFFF" fill-rule="nonzero">
            <g id="noun_953270_cc" transform="translate(42.000000, 15.000000)">
                <g id="Group">
                    <path d="M0,13.184981 C0,14.0672743 0.794815834,14.798956 1.80089192,14.798956 L18.0603006,14.798956 C19.0664229,14.798956 19.8865826,14.0672743 19.8865826,13.184981 L19.8865826,7.77722912 L0,7.77722912 L0,13.184981 Z" id="Shape"></path>
                    <path d="M18.0603006,2.93312641 L14.4293344,2.93312641 L14.4293344,1.53935807 C14.4293344,0.657064757 13.6128745,0 12.6067522,0 L7.55759511,0 C6.55151902,0 5.68848758,0.657064757 5.68848758,1.53935807 L5.68848758,2.93312641 L1.80089192,2.93312641 C0.794815834,2.93312641 0,3.59063558 0,4.47292889 L0,6.93284424 L19.8865826,6.93284424 L19.8865826,4.47292889 C19.8865826,3.59063558 19.0664229,2.93312641 18.0603006,2.93312641 Z M12.0706932,2.93312641 L8.09337664,2.93312641 L8.09337664,2.20073363 C8.09337664,1.97732717 8.29006882,1.86653499 8.54017728,1.86653499 L11.6242163,1.86653499 C11.8741397,1.86653499 12.0706932,1.97732717 12.0706932,2.20073363 L12.0706932,2.93312641 Z" id="Shape"></path>
                </g>
            </g>
        </g>
    </g>
</svg>